<svg width="139" height="40" viewBox="0 0 139 40" fill="none" xmlns="http://www.w3.org/2000/svg">
<path d="M29.9971 34.7961H3.13862C2.36532 34.7961 1.73889 34.1466 1.73889 33.3458V6.07918C1.73889 5.27795 2.36578 4.62891 3.13862 4.62891H16.5669C17.3398 4.62891 17.9667 5.27843 17.9667 6.07918V10.2855C17.9667 11.0867 17.3398 11.7358 16.5669 11.7358C15.7936 11.7358 15.1672 11.0862 15.1672 10.2855V7.52993H4.53881V31.8955H28.5974V7.52945H25.165C24.3922 7.52945 23.7653 6.87944 23.7653 6.07918C23.7653 5.27795 24.3926 4.62891 25.165 4.62891H29.9976C30.7709 4.62891 31.3973 5.27843 31.3973 6.07918V33.3458C31.3973 34.147 30.7704 34.7961 29.9971 34.7961Z" fill="#056BBE"/>
<path fill-rule="evenodd" clip-rule="evenodd" d="M19.613 23.213C21.3699 21.7089 22.25 20.2575 22.25 18.8858C22.25 17.2278 21.1235 16.006 19.6103 16C18.8816 16 18.496 16.0678 18.0332 16.2835C17.7551 16.413 17.5099 16.5869 17.2962 16.8076L16.6282 17.4976L15.9543 16.8134C15.7452 16.6011 15.503 16.4307 15.227 16.3008C14.7488 16.0756 14.3359 16 13.642 16C12.1077 16 11 17.2022 11 18.8858C11 20.2575 11.8801 21.7089 13.637 23.213C14.5697 24.0115 15.7606 24.8116 16.625 25.2601C17.4894 24.8116 18.6803 24.0115 19.613 23.213Z" fill="#ED2958"/>
<path d="M49.0832 25.9183C49.0832 26.8131 48.3841 27.5375 47.5204 27.5375C46.6572 27.5375 45.958 26.8131 45.958 25.9183V25.769C45.1973 26.8342 44.1492 27.622 42.5247 27.622C39.9546 27.622 37.5082 25.5342 37.5082 21.7216V21.6788C37.5082 17.8662 39.9134 15.7784 42.5247 15.7784C44.19 15.7784 45.2176 16.5666 45.958 17.4826V13.3502C45.958 12.4559 46.6572 11.7314 47.5204 11.7314C48.3841 11.7314 49.0832 12.4559 49.0832 13.3502V25.9183ZM40.633 21.6793V21.722C40.633 23.6178 41.8663 24.8746 43.3258 24.8746C44.7853 24.8746 45.9988 23.6178 45.9988 21.722V21.6793C45.9988 19.7836 44.7858 18.5272 43.3258 18.5272C41.8659 18.5272 40.633 19.7624 40.633 21.6793Z" fill="#056BBE"/>
<path d="M51.3452 21.7647V21.722C51.3452 18.4417 53.8949 15.7788 57.3282 15.7788C60.7407 15.7788 63.2696 18.399 63.2696 21.6793V21.722C63.2696 25.0028 60.7203 27.6652 57.287 27.6652C53.8741 27.6652 51.3452 25.045 51.3452 21.7647ZM60.1856 21.7647V21.722C60.1856 20.0394 59.0143 18.5694 57.287 18.5694C55.4985 18.5694 54.4292 19.9971 54.4292 21.6797V21.7225C54.4292 23.4056 55.6009 24.8751 57.3282 24.8751C59.1172 24.8746 60.1856 23.4478 60.1856 21.7647Z" fill="#056BBE"/>
<path d="M65.533 17.483C65.533 16.5887 66.2321 15.8643 67.0953 15.8643C67.9585 15.8643 68.6577 16.5887 68.6577 17.483V17.6112C69.3777 16.6525 70.3025 15.7793 71.8857 15.7793C74.2501 15.7793 75.6276 17.3981 75.6276 20.0183V25.9187C75.6276 26.8136 74.9284 27.538 74.0648 27.538C73.2016 27.538 72.5024 26.8136 72.5024 25.9187V21.0403C72.5024 19.507 71.8032 18.7182 70.6111 18.7182C69.4185 18.7182 68.6577 19.507 68.6577 21.0403V25.9182C68.6577 26.8131 67.9585 27.5375 67.0953 27.5375C66.2321 27.5375 65.533 26.8131 65.533 25.9182V17.483Z" fill="#056BBE"/>
<path d="M77.8076 21.7647V21.722C77.8076 18.4417 80.3573 15.7788 83.7906 15.7788C87.203 15.7788 89.7319 18.399 89.7319 21.6793V21.722C89.7319 25.0028 87.1826 27.6652 83.7493 27.6652C80.3364 27.6652 77.8076 25.045 77.8076 21.7647ZM86.6484 21.7647V21.722C86.6484 20.0394 85.4766 18.5694 83.7493 18.5694C81.9609 18.5694 80.8915 19.9971 80.8915 21.6797V21.7225C80.8915 23.4056 82.0633 24.8751 83.7906 24.8751C85.579 24.8746 86.6484 23.4478 86.6484 21.7647Z" fill="#056BBE"/>
<path d="M91.9948 17.4831C91.9948 16.5888 92.694 15.8644 93.5572 15.8644C94.4204 15.8644 95.1196 16.5888 95.1196 17.4831V17.9944C95.5722 16.8864 96.3122 15.8639 97.237 15.8639C98.2035 15.8639 98.7586 16.524 98.7586 17.4399C98.7586 18.2921 98.2239 18.8033 97.5868 18.9521C96.0036 19.3357 95.1196 20.5925 95.1196 22.893V25.9179C95.1196 26.8127 94.4204 27.5371 93.5572 27.5371C92.694 27.5371 91.9948 26.8127 91.9948 25.9179V17.4831Z" fill="#056BBE"/>
<path d="M100.768 13.3862C100.768 12.4919 101.467 11.7675 102.33 11.7675C103.193 11.7675 103.892 12.4919 103.892 13.3862V17.6679C104.653 16.6027 105.702 15.8149 107.326 15.8149C109.896 15.8149 112.342 17.9027 112.342 21.7153V21.7581C112.342 25.5712 109.937 27.6585 107.326 27.6585C105.66 27.6585 104.633 26.8703 103.892 25.9543V25.9759C103.892 26.8491 103.193 27.5735 102.33 27.5735C101.467 27.5735 100.768 26.8491 100.768 25.9543V13.3862ZM109.218 21.7576V21.7149C109.218 19.8191 107.984 18.5628 106.524 18.5628C105.065 18.5628 103.852 19.8191 103.852 21.7149V21.7576C103.852 23.6533 105.065 24.9102 106.524 24.9102C107.984 24.9102 109.218 23.6749 109.218 21.7576Z" fill="#056BBE"/>
<path d="M114.112 21.8002V21.7575C114.112 18.4772 116.661 15.8143 120.095 15.8143C123.507 15.8143 126.036 18.4345 126.036 21.7148V21.7575C126.036 25.0383 123.487 27.7007 120.053 27.7007C116.64 27.7007 114.112 25.0805 114.112 21.8002ZM122.952 21.8002V21.7575C122.952 20.0749 121.781 18.6049 120.053 18.6049C118.265 18.6049 117.196 20.0326 117.196 21.7153V21.758C117.196 23.4411 118.367 24.9106 120.095 24.9106C121.884 24.9101 122.952 23.4833 122.952 21.8002Z" fill="#056BBE"/>
<path d="M127.847 25.1021L130.663 21.6514L128.093 18.5838C127.744 18.1575 127.579 17.774 127.579 17.3486C127.579 16.4327 128.237 15.8575 129.018 15.8575C129.635 15.8575 130.067 16.1557 130.478 16.6881L132.513 19.4998L134.59 16.6881C134.96 16.219 135.391 15.8575 135.947 15.8575C136.769 15.8575 137.406 16.4538 137.406 17.2637C137.406 17.7111 137.221 18.0519 136.974 18.3716L134.301 21.6092L137.056 24.8899C137.406 25.3158 137.57 25.6993 137.57 26.1251C137.57 27.0411 136.912 27.6162 136.131 27.6162C135.514 27.6162 135.083 27.3176 134.672 26.7852L132.451 23.7604L130.23 26.7852C129.861 27.2543 129.429 27.6162 128.874 27.6162C128.051 27.6162 127.414 27.0195 127.414 26.2101C127.414 25.7622 127.579 25.4214 127.847 25.1021Z" fill="#056BBE"/>
</svg>
